<svg width="48" height="48" viewBox="0 0 48 48" fill="none" xmlns="http://www.w3.org/2000/svg">
<path d="M29.8285 18.812L10.4346 5.7522V7.72011L29.8285 20.7799L34.9415 19.3487V17.3808L29.8285 18.812Z" fill="#243A4A"/>
<path d="M29.8285 29.1881L10.4346 42.2479V40.28L29.8285 27.2202L34.9415 28.6514V30.6193L29.8285 29.1881Z" fill="#243A4A"/>
<path d="M12.1977 17.5595C13.1714 17.5595 13.9607 16.7585 13.9607 15.7705C13.9607 14.7824 13.1714 13.9814 12.1977 13.9814C11.2239 13.9814 10.4346 14.7824 10.4346 15.7705C10.4346 16.7585 11.2239 17.5595 12.1977 17.5595Z" fill="#243A4A"/>
<path d="M12.1977 23.2843C13.1714 23.2843 13.9607 22.4834 13.9607 21.4953C13.9607 20.5073 13.1714 19.7063 12.1977 19.7063C11.2239 19.7063 10.4346 20.5073 10.4346 21.4953C10.4346 22.4834 11.2239 23.2843 12.1977 23.2843Z" fill="#243A4A"/>
<path d="M17.1342 20.422C18.1079 20.422 18.8973 19.6211 18.8973 18.633C18.8973 17.645 18.1079 16.844 17.1342 16.844C16.1605 16.844 15.3711 17.645 15.3711 18.633C15.3711 19.6211 16.1605 20.422 17.1342 20.422Z" fill="#243A4A"/>
<path d="M22.0707 23.2843C23.0444 23.2843 23.8338 22.4834 23.8338 21.4953C23.8338 20.5073 23.0444 19.7063 22.0707 19.7063C21.097 19.7063 20.3076 20.5073 20.3076 21.4953C20.3076 22.4834 21.097 23.2843 22.0707 23.2843Z" fill="#243A4A"/>
<path d="M22.0707 29.0092C23.0444 29.0092 23.8338 28.2082 23.8338 27.2202C23.8338 26.2321 23.0444 25.4312 22.0707 25.4312C21.097 25.4312 20.3076 26.2321 20.3076 27.2202C20.3076 28.2082 21.097 29.0092 22.0707 29.0092Z" fill="#243A4A"/>
<path d="M27.0072 26.1469C27.981 26.1469 28.7703 25.3459 28.7703 24.3579C28.7703 23.3698 27.981 22.5688 27.0072 22.5688C26.0335 22.5688 25.2441 23.3698 25.2441 24.3579C25.2441 25.3459 26.0335 26.1469 27.0072 26.1469Z" fill="#243A4A"/>
<path d="M36.8808 26.1469C37.8545 26.1469 38.6438 25.3459 38.6438 24.3579C38.6438 23.3698 37.8545 22.5688 36.8808 22.5688C35.907 22.5688 35.1177 23.3698 35.1177 24.3579C35.1177 25.3459 35.907 26.1469 36.8808 26.1469Z" fill="#243A4A"/>
<path d="M17.1342 31.8717C18.1079 31.8717 18.8973 31.0708 18.8973 30.0827C18.8973 29.0947 18.1079 28.2937 17.1342 28.2937C16.1605 28.2937 15.3711 29.0947 15.3711 30.0827C15.3711 31.0708 16.1605 31.8717 17.1342 31.8717Z" fill="#243A4A"/>
<path d="M12.1977 29.0092C13.1714 29.0092 13.9607 28.2082 13.9607 27.2202C13.9607 26.2321 13.1714 25.4312 12.1977 25.4312C11.2239 25.4312 10.4346 26.2321 10.4346 27.2202C10.4346 28.2082 11.2239 29.0092 12.1977 29.0092Z" fill="#243A4A"/>
<path d="M17.1342 26.1469C18.1079 26.1469 18.8973 25.3459 18.8973 24.3579C18.8973 23.3698 18.1079 22.5688 17.1342 22.5688C16.1605 22.5688 15.3711 23.3698 15.3711 24.3579C15.3711 25.3459 16.1605 26.1469 17.1342 26.1469Z" fill="#243A4A"/>
<path d="M12.1977 34.734C13.1714 34.734 13.9607 33.9331 13.9607 32.945C13.9607 31.957 13.1714 31.156 12.1977 31.156C11.2239 31.156 10.4346 31.957 10.4346 32.945C10.4346 33.9331 11.2239 34.734 12.1977 34.734Z" fill="#243A4A"/>
</svg>
